#!OML:ASF F:\VICON\USERDATA\INSTALL\Justin_Nancy\Justin_Nancy.ASF
:FULLY-SPECIFIED
:DEGREES
32
root -8.1067 17.2769 -26.2059 1.81374 -9.17599 -4.8186
lowerback 5.257 1.97635 3.98406
upperback 1.04681 2.8964 2.43656
thorax -1.79619 1.4261 0.0827729
lowerneck -15.9377 -3.67206 -8.35754
upperneck 21.4494 -4.19345 5.23707
head 9.71969 -2.04737 2.67049
rclavicle 1.01877e-014 -5.1684e-015
rhumerus -22.8811 -8.44948 -81.1772
rradius 36.2266
rwrist 3.87869
rhand -17.7956 11.9363
rfingers 7.12502
rthumb 8.46763 -17.874
lclavicle 1.01877e-014 -5.1684e-015
lhumerus -35.3303 10.5437 84.3972
lradius 20.6784
lwrist -15.8817
lhand -12.3275 30.1776
lfingers 7.12502
lthumb 13.7413 59.7038
rfemur 10.1993 5.44041 31.8151
rtibia 13.6716
rfoot -15.1402 -3.20653
rtoes 3.46027
lfemur -31.907 -6.61261 -12.3738
ltibia 18.5725
lfoot -9.09022 12.2919
ltoes -7.88866
33
root -8.1069 17.269 -26.0471 1.90817 -9.10476 -4.79308
lowerback 5.08891 1.81648 3.8436
upperback 0.903711 2.67635 2.59817
thorax -1.86986 1.31537 0.343814
lowerneck -16.0602 -2.91456 -9.13651
upperneck 22.5357 -3.16406 6.10638
head 10.075 -1.54724 3.26764
rclavicle -3.32964e-015 1.19271e-015
rhumerus -22.9801 -7.94126 -81.0884
rradius 36.2676
rwrist 3.74006
rhand -17.3861 12.2181
rfingers 7.12502
rthumb 8.8628 -17.5758
lclavicle -3.32964e-015 1.19271e-015
lhumerus -35.8655 11.5795 84.1105
lradius 20.4308
lwrist -16.4146
lhand -12.5175 29.6998
lfingers 7.12502
lthumb 13.5582 59.2384
rfemur 10.4947 5.48793 31.7711
rtibia 14.0108
rfoot -15.0603 -3.32374
rtoes 2.44422
lfemur -31.9301 -5.80082 -12.9504
ltibia 18.7783
lfoot -8.73 11.4671
ltoes -6.84502
34
root -8.10881 17.2554 -25.8956 1.8665 -8.88959 -4.71424
lowerback 4.97957 1.66614 3.6222
upperback 0.992477 2.45693 2.72882
thorax -1.737 1.21009 0.620288
lowerneck -15.9468 -3.00492 -9.32029
upperneck 22.1647 -3.19673 5.93718
head 9.92606 -1.59475 3.22668
rclavicle 7.30534e-015 3.57812e-015
rhumerus -22.8125 -7.78457 -80.9185
rradius 36.3741
rwrist 3.2779
rhand -16.6151 12.8481
rfingers 7.12502
rthumb 9.60669 -16.9129
lclavicle 7.30534e-015 3.57812e-015
lhumerus -35.9535 12.6077 83.8385
lradius 20.1661
lwrist -16.902
lhand -12.4346 29.4269
lfingers 7.12502
lthumb 13.6382 58.9601
rfemur 10.7721 5.44434 31.7354
rtibia 14.5067
rfoot -14.9316 -3.54282
rtoes 1.65264
lfemur -31.913 -4.99676 -13.66
ltibia 19.167
lfoot -8.23214 10.75
ltoes -6.2488
35
root -8.10846 17.2407 -25.741 1.74536 -8.8009 -4.78122
lowerback 5.20911 1.57295 3.60429
upperback 0.948236 2.34944 2.84405
thorax -1.91816 1.15406 0.747577
lowerneck -15.6679 -3.05527 -9.46625
upperneck 21.8889 -3.21939 5.82577
head 9.77943 -1.63087 3.20438
rclavicle 5.61567e-015 -1.59028e-014
rhumerus -22.9973 -7.522 -80.8127
rradius 36.6303
rwrist 2.86452
rhand -16.2623 12.5737
rfingers 7.12502
rthumb 9.94709 -17.1713
lclavicle 5.61567e-015 -1.59028e-014
lhumerus -36.2628 13.2944 83.5936
lradius 19.9071
lwrist -17.1516
lhand -12.5666 29.2243
lfingers 7.12502
lthumb 13.5109 58.766
rfemur 11.0668 5.43765 31.8223
rtibia 15.1629
rfoot -14.7802 -3.62492
rtoes 1.02594
lfemur -31.737 -4.41099 -14.1129
ltibia 19.6926
lfoot -7.87489 10.4665
ltoes -6.48865
36
root -8.10656 17.2321 -25.5754 1.60929 -8.85067 -4.80065
lowerback 5.36516 1.59427 3.76478
upperback 0.876947 2.39673 2.73468
thorax -2.067 1.17372 0.536517
lowerneck -15.2928 -3.05032 -9.41077
upperneck 21.6233 -3.28172 5.9323
head 9.62054 -1.64568 3.22163
rclavicle 9.14409e-015 3.10104e-014
rhumerus -23.3719 -7.3618 -81.046
rradius 36.8856
rwrist 2.92997
rhand -16.9485 11.542
rfingers 7.12502
rthumb 9.28502 -18.2335
lclavicle 9.14409e-015 3.10104e-014
lhumerus -36.5413 13.3608 83.2808
lradius 19.6437
lwrist -17.1627
lhand -12.6374 28.9548
lfingers 7.12502
lthumb 13.4427 58.501
rfemur 11.409 5.42729 31.7951
rtibia 15.9479
rfoot -14.7684 -3.61129
rtoes 0.484289
lfemur -31.4397 -3.92458 -14.5683
ltibia 20.3129
lfoot -7.8314 10.2881
ltoes -6.74408
37
root -8.10483 17.2259 -25.3977 1.48605 -9.02802 -4.88702
lowerback 5.29214 1.63665 3.96017
upperback 0.869881 2.45893 2.68879
thorax -2.02209 1.20375 0.378598
lowerneck -14.9168 -3.05196 -9.61144
upperneck 21.6832 -3.32943 6.16719
head 9.58243 -1.66522 3.33496
rclavicle -2.15681e-014 -1.98785e-015
rhumerus -23.702 -7.32119 -81.1674
rradius 36.9237
rwrist 3.06615
rhand -17.3118 11.3306
rfingers 7.12502
rthumb 8.93443 -18.4602
lclavicle -2.15681e-014 -1.98785e-015
lhumerus -36.8423 13.6793 82.9173
lradius 19.3374
lwrist -17.494
lhand -12.9554 28.8294
lfingers 7.12502
lthumb 13.1362 58.3957
rfemur 11.7204 5.5786 31.8308
rtibia 16.863
rfoot -14.652 -3.40001
rtoes -0.366733
lfemur -31.0405 -3.50708 -14.8529
ltibia 20.9821
lfoot -8.13478 10.0069
ltoes -5.31909
38
root -8.09948 17.2203 -25.2174 1.40575 -9.25251 -4.81647
lowerback 5.14401 1.69414 3.87752
upperback 0.960462 2.51795 2.70605
thorax -1.84894 1.23705 0.445028
lowerneck -14.8258 -3.26022 -9.85559
upperneck 21.8165 -3.56692 6.1385
head 9.63952 -1.80209 3.3374
rclavicle 3.8266e-015 -2.18663e-014
rhumerus -23.7269 -7.49269 -81.0701
rradius 36.8545
rwrist 2.97095
rhand -17.0684 11.7564
rfingers 7.12502
rthumb 9.16936 -18.0243
lclavicle 3.8266e-015 -2.18663e-014
lhumerus -37.0185 14.4354 82.5873
lradius 19.1399
lwrist -18.131
lhand -13.1528 28.7801
lfingers 7.12502
lthumb 12.9459 58.3584
rfemur 11.8573 5.84557 31.6762
rtibia 17.9447
rfoot -14.5447 -3.14827
rtoes -2.1271
lfemur -30.6378 -3.29889 -15.1991
ltibia 21.5731
lfoot -8.51271 9.79897
ltoes -3.96391
